<svg width="448" height="543" viewBox="0 0 448 543" fill="none" xmlns="http://www.w3.org/2000/svg">
<path d="M78.2665 70.9172L137.827 215.965L147.519 241.086L127.376 269.357L85.936 314.961C65.4424 336.734 20.2431 385.148 3.39522 404.625C-13.4526 424.101 63.7322 384.881 74.9619 376.956C105.877 355.226 118.245 350.263 128.396 345.672C138.546 341.081 161.525 335.638 164.197 341.892C166.868 348.146 159.774 423.809 159.774 423.809L156.149 541.842L196.656 444.551L228.819 358.699C228.819 358.699 264.34 372.043 273.555 387.158C282.77 402.274 308.353 459.794 311.268 468.146C314.183 476.497 341.619 527.605 342.664 526.673C356.522 541.214 364.197 543.064 377.764 540.061C365.349 530.508 345.287 480.67 338.952 454.161C328.53 407.833 316.665 332.831 321.032 321.812C323.228 316.268 336.525 301.138 356.981 290.865C367.855 284.554 383.961 270.642 407.637 256.355C439.209 235.784 446.352 239.668 446.829 227.553C448.418 220.098 380.458 215.798 334.659 211.803C314.101 210.009 298.436 208.643 296.344 207.774C293.924 206.768 295.08 192.384 296.752 171.586C298.417 150.876 300.593 123.806 300.259 97.2513C298.946 84.8204 300.015 71.1325 298.335 55.221L290.009 0.183437L279.739 55.2816L270.943 90.2913C270.943 90.2913 252.62 155.576 242.08 174.789C231.539 194.003 221.202 196.1 221.202 196.1L186.985 162.507L140.149 114.158L53.3303 6.17784L78.2665 70.9172Z" fill="#ACC2A7" stroke="black" stroke-width="2"/>
</svg>
