<svg width="118" height="115" viewBox="0 0 118 115" fill="none" xmlns="http://www.w3.org/2000/svg">
<path d="M59 0.000106448C91.5975 0.000106448 118 26.3827 118 58.9556C117.992 84.2854 101.821 106.79 77.8084 114.888C74.8584 115.477 73.75 113.633 73.75 112.087C73.75 110.095 73.8259 103.758 73.8259 95.8744C73.8259 90.3495 71.9842 86.8121 69.8434 84.9677C82.9709 83.4938 96.7642 78.4825 96.7642 55.8605C96.7642 49.3754 94.4759 44.1409 90.7167 40.0183C91.3067 38.5444 93.3717 32.5014 90.1267 24.3951C90.1267 24.3951 85.1834 22.7738 73.9017 30.438C69.1817 29.1115 64.1667 28.4504 59.1517 28.4504C54.1367 28.4504 49.1217 29.1115 44.4017 30.438C33.1201 22.8496 28.1767 24.3951 28.1767 24.3951C24.9317 32.5014 26.9967 38.5444 27.5867 40.0183C23.8276 44.1452 21.5392 49.4512 21.5392 55.8605C21.5392 78.4109 35.2567 83.498 48.3842 84.9719C46.6859 86.4458 45.1392 89.0272 44.6209 92.8551C41.2284 94.4048 32.745 96.9104 27.4392 87.9912C26.3309 86.2226 23.0142 81.8767 18.3701 81.9483C13.4267 82.0241 16.3809 84.7487 18.4417 85.852C20.9492 87.2501 23.8234 92.4845 24.4892 94.1816C25.6692 97.4957 29.5042 103.838 44.3259 101.109C44.3259 106.048 44.4017 110.689 44.4017 112.087C44.4017 113.637 43.2934 115.401 40.3434 114.888C16.2419 106.87 -0.0126355 84.336 7.37003e-06 58.9514C7.37003e-06 26.3785 26.4025 0.000106448 59 0.000106448Z" fill="#E56565"/>
</svg>
