<svg width="108" height="109" viewBox="0 0 108 109" fill="none" xmlns="http://www.w3.org/2000/svg">
<path d="M31.6354 0.387195C25.8881 0.659685 21.9654 1.58615 18.5363 2.94471C14.9877 4.34219 11.9791 6.21459 8.982 9.24701C5.98881 12.2794 4.14506 15.3196 2.7719 18.9048C1.44116 22.3732 0.542431 26.336 0.287855 32.1401C0.0332793 37.9402 -0.0207214 39.8087 0.00627906 54.6049C0.0332795 69.4011 0.0988519 71.2579 0.376571 77.0736C0.650433 82.8699 1.56459 86.8288 2.91076 90.2933C4.29549 93.8746 6.15081 96.9109 9.15558 99.9355C12.1603 102.956 15.169 104.813 18.733 106.203C22.1659 107.542 26.0964 108.457 31.8437 108.71C37.5909 108.963 39.4424 109.021 54.1036 108.994C68.7649 108.967 70.6086 108.9 76.3713 108.624C82.134 108.348 86.0336 107.421 89.4665 106.067C93.0151 104.665 96.0276 102.797 99.0208 99.7604C102.014 96.7241 103.858 93.6838 105.227 90.0948C106.558 86.6302 107.46 82.6636 107.711 76.8673C107.962 71.0516 108.024 69.1948 107.993 54.3947C107.962 39.5946 107.9 37.7417 107.626 31.9298C107.352 26.118 106.438 22.1708 105.092 18.7063C103.703 15.125 101.852 12.0887 98.8472 9.06405C95.8425 6.03941 92.8261 4.18259 89.2698 2.80068C85.833 1.45769 81.9064 0.542903 76.1591 0.293769C70.4119 0.0446353 68.5604 -0.0215403 53.8953 0.00570866C39.2302 0.0329576 37.3942 0.0991336 31.6354 0.379409M32.268 98.9001C27.0029 98.6704 24.1447 97.7868 22.2392 97.0472C19.7166 96.0662 17.9192 94.8789 16.0214 92.9832C14.1237 91.0874 12.9549 89.2656 11.9713 86.7237C11.2308 84.8007 10.3397 81.9201 10.0929 76.6065C9.82673 70.8648 9.76887 69.1403 9.73802 54.5893C9.70716 40.0384 9.76116 38.3178 10.0119 32.5721C10.2356 27.2625 11.115 24.3741 11.8479 22.4511C12.8199 19.9014 13.9925 18.0913 15.8748 16.176C17.7572 14.2608 19.5585 13.0813 22.0772 12.0887C23.9788 11.3374 26.837 10.446 32.0983 10.1929C37.7915 9.92045 39.5002 9.86595 53.9146 9.83481C68.329 9.80367 70.0416 9.85817 75.7387 10.1112C80.9999 10.3409 83.862 11.2206 85.7636 11.9641C88.2862 12.9451 90.0837 14.1246 91.9814 16.0281C93.8792 17.9317 95.0479 19.7418 96.0353 22.2915C96.7798 24.2067 97.6631 27.0873 97.9099 32.4009C98.1799 38.1465 98.2417 39.871 98.2687 54.418C98.2957 68.9651 98.2455 70.6935 97.9948 76.4352C97.7634 81.7488 96.8916 84.6333 96.1588 86.5602C95.1868 89.106 94.0142 90.92 92.128 92.8352C90.2418 94.7504 88.4444 95.9299 85.9256 96.9226C84.024 97.67 81.1658 98.5653 75.9084 98.8183C70.2152 99.0869 68.5064 99.1453 54.0882 99.1765C39.67 99.2076 37.9612 99.1492 32.268 98.9001ZM76.2903 25.3745C76.298 28.987 79.2025 31.9104 82.782 31.9026C86.3615 31.8948 89.2582 28.9636 89.2505 25.3512C89.2428 21.7387 86.3383 18.8153 82.7588 18.8231C79.1793 18.8309 76.2864 21.7621 76.2903 25.3745ZM26.2739 54.5543C26.3047 70.0084 38.7404 82.5118 54.0535 82.4806C69.3666 82.4495 81.7598 69.8994 81.7328 54.4453C81.702 38.9912 69.2625 26.4839 53.9493 26.5151C38.6362 26.5462 26.243 39.1002 26.2739 54.5543ZM36.0056 54.5348C35.9863 44.5033 44.0286 36.352 53.9725 36.3325C63.9125 36.313 71.9895 44.4293 72.0088 54.4648C72.0281 64.4963 63.9858 72.6476 54.0419 72.6671C44.1019 72.6866 36.0249 64.5741 36.0056 54.5426" fill="#E56565"/>
</svg>
