<svg width="111" height="111" viewBox="0 0 111 111" fill="none" xmlns="http://www.w3.org/2000/svg">
<path fill-rule="evenodd" clip-rule="evenodd" d="M98.6662 0H12.3338C5.52438 0 0 5.52012 0 12.3338V98.6662C0 105.476 5.52012 111 12.3338 111H98.6662C105.476 111 111 105.48 111 98.6662V12.3338C111 5.52438 105.48 0 98.6662 0ZM33.5604 95.5838H17.0086V42.1373H33.5604V95.5838ZM25.2055 35.14C19.7964 35.14 15.4162 30.7257 15.4162 25.2781C15.4162 19.8306 19.7964 15.4162 25.2055 15.4162C30.6147 15.4162 34.9906 19.8306 34.9906 25.2781C34.9906 30.7257 30.6104 35.14 25.2055 35.14ZM95.5838 95.5838H79.1131V67.5307C79.1131 59.8375 76.1887 55.5384 70.1008 55.5384C63.4792 55.5384 60.0168 60.0126 60.0168 67.5307V95.5838H44.1438V42.1373H60.0168V49.3352C60.0168 49.3352 64.7898 40.5022 76.1332 40.5022C87.4765 40.5022 95.5838 47.4226 95.5838 61.7416V95.5838Z" fill="#E56565"/>
</svg>
